HIERARCHY
ROOT Pelvis
{
	OFFSET 0.000000 0.000000 0.000000
	CHANNELS 6 Xposition Yposition Zposition Xrotation Yrotation Zrotation
	JOINT LeftUpLeg_virtual
	{
		OFFSET 0.000000 0.000000 0.000000
		CHANNELS 3 Xrotation Yrotation Zrotation
		JOINT LeftUpLeg
		{
			OFFSET 18.735201 -5.666702 -4.541200
			CHANNELS 3 Xrotation Yrotation Zrotation
			JOINT LeftLeg
			{
				OFFSET -0.021200 -31.938179 0.493100
				CHANNELS 3 Xrotation Yrotation Zrotation
				JOINT LeftFoot
				{
					OFFSET 0.021200 -31.938179 -4.336299
					CHANNELS 3 Xrotation Yrotation Zrotation
					JOINT LeftToeBase
					{
						OFFSET 0.943001 -26.722000 15.023500
						CHANNELS 3 Xrotation Yrotation Zrotation
						End Site
						{
							OFFSET 0 0 0
						}
					}
				}
			}
		}
	}
	JOINT RightUpLeg_virtual
	{
		OFFSET 0.000000 0.000000 0.000000
		CHANNELS 3 Xrotation Yrotation Zrotation
		JOINT RightUpLeg
		{
			OFFSET -18.735201 -5.666702 -4.541200
			CHANNELS 3 Xrotation Yrotation Zrotation
			JOINT RightLeg
			{
				OFFSET 0.018946 -31.938133 0.493100
				CHANNELS 3 Xrotation Yrotation Zrotation
				JOINT RightFoot
				{
					OFFSET -0.018946 -31.938126 -4.336299
					CHANNELS 3 Xrotation Yrotation Zrotation
					JOINT RightToeBase
					{
						OFFSET -0.943001 -26.722004 15.023500
						CHANNELS 3 Xrotation Yrotation Zrotation
						End Site
						{
							OFFSET 0 0 0
						}
					}
				}
			}
		}
	}
	JOINT Hips_virtual
	{
		OFFSET 0.000000 0.000000 0.000000
		CHANNELS 3 Xrotation Yrotation Zrotation
		JOINT Hips
		{
			OFFSET -0.000000 -0.000000 -0.000000
			CHANNELS 3 Xrotation Yrotation Zrotation
			JOINT Spine
			{
				OFFSET 0.000000 10.199997 -0.299500
				CHANNELS 3 Xrotation Yrotation Zrotation
				JOINT Spine1
				{
					OFFSET 0.000000 11.900002 -1.516600
					CHANNELS 3 Xrotation Yrotation Zrotation
					JOINT Spine2
					{
						OFFSET 0.000000 13.600006 -2.842500
						CHANNELS 3 Xrotation Yrotation Zrotation
						JOINT Neck_virtual
						{
							OFFSET 0.000000 0.000000 0.000000
							CHANNELS 3 Xrotation Yrotation Zrotation
							JOINT Neck
							{
								OFFSET 0.000000 9.624100 -2.890100
								CHANNELS 3 Xrotation Yrotation Zrotation
								JOINT Head
								{
									OFFSET 0.000000 14.068802 -1.351900
									CHANNELS 3 Xrotation Yrotation Zrotation
									End Site
									{
										OFFSET 0 0 0
									}
								}
							}
						}
						JOINT LeftShoulder_virtual
						{
							OFFSET 0.000000 0.000000 0.000000
							CHANNELS 3 Xrotation Yrotation Zrotation
							JOINT LeftShoulder
							{
								OFFSET 15.263000 10.923401 -0.547700
								CHANNELS 3 Xrotation Yrotation Zrotation
								JOINT LeftArm
								{
									OFFSET 25.438599 -2.830597 -13.032500
									CHANNELS 3 Xrotation Yrotation Zrotation
									JOINT LeftForeArm
									{
										OFFSET 29.960503 0.000000 0.000000
										CHANNELS 3 Xrotation Yrotation Zrotation
										JOINT LeftHand
										{
											OFFSET 27.849251 0.000000 0.000000
											CHANNELS 3 Xrotation Yrotation Zrotation
											End Site
											{
												OFFSET 0 0 0
											}
										}
									}
								}
							}
						}
						JOINT RightShoulder_virtual
						{
							OFFSET 0.000000 0.000000 0.000000
							CHANNELS 3 Xrotation Yrotation Zrotation
							JOINT RightShoulder
							{
								OFFSET -15.263000 10.923401 -0.547700
								CHANNELS 3 Xrotation Yrotation Zrotation
								JOINT RightArm
								{
									OFFSET -25.438599 -2.830597 -13.032500
									CHANNELS 3 Xrotation Yrotation Zrotation
									JOINT RightForeArm
									{
										OFFSET -29.960503 0.000000 0.000000
										CHANNELS 3 Xrotation Yrotation Zrotation
										JOINT RightHand
										{
											OFFSET -27.849251 0.000000 0.000000
											CHANNELS 3 Xrotation Yrotation Zrotation
											End Site
											{
												OFFSET 0 0 0
											}
										}
									}
								}
							}
						}
					}
				}
			}
		}
	}
}
MOTION
Frames: 4
Frame Time: 0.03333333
-0.229344 93.061241 -1.018322 0.000000 0.000000 0.000000 1.122191 3.281147 -0.388500 -16.440878 8.616810 7.151798 28.683998 -1.862160 2.284733 -13.592299 1.233332 -6.098077 0.000000 0.000000 0.000000 1.122191 3.281147 -0.388500 -7.267799 -6.309584 -5.750840 25.090053 -8.584638 8.543535 -17.784663 -16.480748 -0.050002 0.000000 0.000000 0.000000 1.122191 3.281147 -0.388500 0.000000 0.000000 0.000000 19.656217 -0.894382 -1.391445 1.207867 -0.113790 0.463327 0.000000 0.000000 0.000000 1.207853 -0.094920 0.464716 7.010055 0.636018 0.598483 0.000000 0.000000 0.000000 1.207853 -0.094920 0.464716 12.155496 -37.694875 -0.146231 9.643774 18.951524 -51.717701 -0.000005 -34.841724 0.000006 0.000000 0.000000 0.000000 1.207853 -0.094920 0.464716 0.535943 -2.061219 6.265374 2.514661 20.851060 34.435915 0.000002 9.263331 0.000032 0.000000 0.000000 0.000000 
-0.195789 93.105209 -0.826237 0.000000 0.000000 0.000000 1.019604 3.204236 -0.409585 -16.025265 8.752954 7.205713 28.468097 -1.925489 2.222940 -13.701896 1.234292 -6.063611 0.000000 0.000000 0.000000 1.019604 3.204236 -0.409585 -6.793131 -6.212989 -5.618659 24.645868 -8.649903 8.399038 -17.682211 -16.551321 0.049012 0.000000 0.000000 0.000000 1.019604 3.204236 -0.409585 0.000000 0.000000 0.000000 19.037141 -0.940673 -1.326599 1.223064 -0.119062 0.413203 0.000000 0.000000 0.000000 1.222982 -0.102590 0.414475 6.999285 0.331130 0.593979 0.000000 0.000000 0.000000 1.222982 -0.102590 0.414475 11.672666 -37.520623 -0.316564 11.271316 19.967074 -51.862931 -0.000013 -34.690794 0.000001 0.000000 0.000000 0.000000 1.222982 -0.102590 0.414475 0.491475 -2.548973 6.180815 3.745291 20.212615 34.029457 -0.000003 9.536094 -0.000004 0.000000 0.000000 0.000000 
-0.172081 93.132896 -0.674767 0.000000 0.000000 0.000000 0.923102 3.157269 -0.397710 -15.672443 8.845168 7.208308 28.287857 -1.956107 2.183495 -13.781107 1.235794 -6.045695 0.000000 0.000000 0.000000 0.923102 3.157269 -0.397710 -6.441715 -6.184688 -5.581902 24.386857 -8.676114 8.322007 -17.655385 -16.564030 0.123235 0.000000 0.000000 0.000000 0.923102 3.157269 -0.397710 0.000000 0.000000 0.000000 18.530769 -0.904651 -1.351335 1.234593 -0.113719 0.407003 0.000000 0.000000 0.000000 1.234487 -0.097862 0.408096 6.974370 0.078270 0.609808 0.000000 0.000000 0.000000 1.234487 -0.097862 0.408096 11.198572 -37.286033 -0.490915 12.400882 20.323675 -52.234449 -0.000009 -34.431503 0.000002 0.000000 0.000000 0.000000 1.234487 -0.097862 0.408096 0.469255 -2.842995 6.172176 4.088870 19.748918 34.584806 0.000007 9.610798 -0.000012 0.000000 0.000000 0.000000 
-0.152649 93.140717 -0.562084 0.000000 0.000000 0.000000 0.828669 3.190873 -0.345129 -15.401303 8.877768 7.138001 28.161830 -1.983529 2.184544 -13.825837 1.237334 -6.041029 0.000000 0.000000 0.000000 0.828669 3.190873 -0.345129 -6.211972 -6.219266 -5.640153 24.344357 -8.655947 8.302678 -17.733891 -16.573509 0.178766 0.000000 0.000000 0.000000 0.828669 3.190873 -0.345129 0.000000 0.000000 0.000000 18.132491 -0.820088 -1.443985 1.238722 -0.101848 0.428710 0.000000 0.000000 0.000000 1.238573 -0.085526 0.429644 6.948926 -0.107039 0.624693 0.000000 0.000000 0.000000 1.238573 -0.085526 0.429644 10.762251 -36.958447 -0.671949 12.927846 20.131009 -52.757897 0.000002 -33.986403 0.000010 0.000000 0.000000 0.000000 1.238573 -0.085526 0.429644 0.465288 -2.973859 6.249358 3.518505 19.404429 36.092659 0.000001 9.454700 0.000004 0.000000 0.000000 0.000000 
